<svg width="1024" height="1024" viewBox="0 0 1024 1024" fill="none" xmlns="http://www.w3.org/2000/svg">
  <rect width="1024" height="1024" rx="216" fill="#E4B126"/>
  <rect x="42" y="42" width="940" height="940" rx="178" fill="#F0C641" stroke="#9B7217" stroke-width="28"/>
  <path d="M318 255C260 255 212 304 212 363C212 422 260 470 318 470C376 470 424 422 424 363C424 304 376 255 318 255Z" fill="#D5A523"/>
  <path d="M706 255C648 255 600 304 600 363C600 422 648 470 706 470C764 470 812 422 812 363C812 304 764 255 706 255Z" fill="#D5A523"/>
  <path d="M180 418C128 418 86 461 86 514C86 567 128 610 180 610C232 610 274 567 274 514C274 461 232 418 180 418Z" fill="#D5A523"/>
  <path d="M844 418C792 418 750 461 750 514C750 567 792 610 844 610C896 610 938 567 938 514C938 461 896 418 844 418Z" fill="#D5A523"/>
  <path d="M512 520C389 520 288 620 288 744C288 868 389 926 512 926C635 926 736 868 736 744C736 620 635 520 512 520Z" fill="#D5A523"/>
  <path d="M228 790V278L286 220H390V468L634 760V278L692 220H796V790L738 848H634L390 556V790L332 848H286L228 790Z" fill="#25231E"/>
  <path d="M390 468L448 410L692 702V790L634 760L390 468Z" fill="#3A372F"/>
  <path d="M332 848L390 790H796L738 848H332Z" fill="#171613"/>
  <path d="M286 220H390L332 278H228L286 220Z" fill="#3A372F"/>
  <path d="M692 220H796L738 278H634L692 220Z" fill="#3A372F"/>
  <path d="M397 505L436 542L436 671L397 625V505Z" fill="#E4B126"/>
  <rect x="92" y="92" width="840" height="840" rx="140" stroke="#FFE58A" stroke-width="8" opacity="0.8"/>
</svg>
