<svg width="1024" height="1024" viewBox="0 0 1024 1024" fill="none" xmlns="http://www.w3.org/2000/svg">
  <rect width="1024" height="1024" rx="208" fill="#D8A91D"/>
  <rect x="40" y="40" width="944" height="944" rx="174" fill="#F0C94B" stroke="#8F6717" stroke-width="22"/>
  <path d="M512 128L544 181L512 234L480 181L512 128Z" fill="#A67A1B" opacity="0.8"/>
  <path d="M314 250C253 250 203 300 203 362C203 423 253 473 314 473C375 473 425 423 425 362C425 300 375 250 314 250Z" fill="#2A2721"/>
  <path d="M492 206C429 206 378 258 378 321C378 384 429 435 492 435C555 435 606 384 606 321C606 258 555 206 492 206Z" fill="#2A2721"/>
  <path d="M676 250C615 250 565 300 565 362C565 423 615 473 676 473C737 473 787 423 787 362C787 300 737 250 676 250Z" fill="#2A2721"/>
  <path d="M806 385C753 385 710 429 710 482C710 535 753 578 806 578C859 578 902 535 902 482C902 429 859 385 806 385Z" fill="#2A2721"/>
  <path d="M512 392C357 392 231 518 231 673C231 828 357 907 512 907C667 907 793 828 793 673C793 518 667 392 512 392Z" fill="#2A2721"/>
  <path d="M512 421C385 421 282 524 282 650C282 778 385 856 512 856C639 856 742 778 742 650C742 524 639 421 512 421Z" fill="#343129"/>
  <path d="M437 739V556L587 739V556" stroke="#E5B52C" stroke-width="32" stroke-linecap="square" stroke-linejoin="miter"/>
  <path d="M512 97L531 128L512 159L493 128L512 97Z" fill="#FFE891"/>
  <rect x="82" y="82" width="860" height="860" rx="142" stroke="#FFE891" stroke-width="6" opacity="0.75"/>
</svg>
